<?xml version="1.0" encoding="UTF-8"?>
<svg width="23px" height="23px" viewBox="0 0 23 23" version="1.1" xmlns="http://www.w3.org/2000/svg" xmlns:xlink="http://www.w3.org/1999/xlink">
    <!-- Generator: Sketch 52.6 (67491) - http://www.bohemiancoding.com/sketch -->
    <title>Download</title>
    <desc>Created with Sketch.</desc>
    <defs>
        <path d="M1313.03996,160.101195 C1313.03746,160.06779 1313.03618,160.034043 1313.03618,160 L1313.03618,149.333333 C1313.03618,148.597333 1313.63218,148 1314.36952,148 C1315.10685,148 1315.70285,148.597333 1315.70285,149.333333 L1315.70285,159.999766 L1318.90285,157.6 C1319.49218,157.156 1320.32818,157.277333 1320.76952,157.866667 C1321.21218,158.456 1321.09218,159.292 1320.50285,159.733333 L1315.16952,163.733333 C1314.93352,163.910667 1314.65085,164 1314.36952,164 C1314.10152,164 1313.83352,163.918667 1313.60285,163.757333 L1308.26952,160.005333 C1307.66685,159.581333 1307.52152,158.749333 1307.94552,158.148 C1308.36952,157.545333 1309.20018,157.4 1309.80285,157.824 L1313.03996,160.101195 Z M1325.03618,169.333333 C1325.03618,170.066667 1324.43618,170.666667 1323.70285,170.666667 L1305.03618,170.666667 C1304.30285,170.666667 1303.70285,170.066667 1303.70285,169.333333 L1303.70285,166.666667 C1303.70285,165.933333 1304.30285,165.333333 1305.03618,165.333333 C1305.76952,165.333333 1306.36952,165.933333 1306.36952,166.666667 L1306.36952,168 L1322.36952,168 L1322.36952,166.666667 C1322.36952,165.933333 1322.96952,165.333333 1323.70285,165.333333 C1324.43618,165.333333 1325.03618,165.933333 1325.03618,166.666667 L1325.03618,169.333333 Z" id="path-1"></path>
    </defs>
    <g id="Pages" stroke="none" stroke-width="1" fill="none" fill-rule="evenodd">
        <g id="Document-management-drive--Grid" transform="translate(-1303.000000, -148.000000)">
            <mask id="mask-2" fill="white">
                <use xlink:href="#path-1"></use>
            </mask>
            <use id="Download" fill="#4339F2" xlink:href="#path-1"></use>
        </g>
    </g>
</svg>