<?xml version="1.0" encoding="UTF-8"?>
<svg width="27px" height="20px" viewBox="0 0 27 20" version="1.1" xmlns="http://www.w3.org/2000/svg" xmlns:xlink="http://www.w3.org/1999/xlink">
    <!-- Generator: Sketch 52.6 (67491) - http://www.bohemiancoding.com/sketch -->
    <title>Eye</title>
    <desc>Created with Sketch.</desc>
    <defs>
        <path d="M1257.62714,162 C1256.52447,162 1255.62714,161.102667 1255.62714,160 C1255.62714,158.897333 1256.52447,158 1257.62714,158 C1258.7298,158 1259.62714,158.897333 1259.62714,160 C1259.62714,161.102667 1258.7298,162 1257.62714,162 M1257.62714,155.333333 C1255.0538,155.333333 1252.96047,157.426667 1252.96047,160 C1252.96047,162.573333 1255.0538,164.666667 1257.62714,164.666667 C1260.20047,164.666667 1262.2938,162.573333 1262.2938,160 C1262.2938,157.426667 1260.20047,155.333333 1257.62714,155.333333 M1257.92007,166.663467 C1252.17874,166.7968 1248.4334,161.886133 1247.19074,159.994133 C1248.55874,157.854133 1252.00407,153.4728 1257.33474,153.3368 C1263.0534,153.191467 1266.82007,158.114133 1268.06274,160.006133 C1266.69607,162.146133 1263.2494,166.527467 1257.92007,166.663467 M1270.78407,159.3368 C1269.9334,157.854133 1265.23474,150.422133 1257.26674,150.671467 C1249.89607,150.858133 1245.6094,157.351467 1244.47074,159.3368 C1244.23474,159.747467 1244.23474,160.2528 1244.47074,160.663467 C1245.3094,162.126133 1249.84274,169.3328 1257.66007,169.3328 C1257.7694,169.3328 1257.87874,169.331467 1257.98807,169.3288 C1265.3574,169.1408 1269.6454,162.6488 1270.78407,160.663467 C1271.01874,160.2528 1271.01874,159.747467 1270.78407,159.3368" id="path-1"></path>
    </defs>
    <g id="Pages" stroke="none" stroke-width="1" fill="none" fill-rule="evenodd">
        <g id="Document-management-drive--Grid" transform="translate(-1244.000000, -150.000000)">
            <mask id="mask-2" fill="white">
                <use xlink:href="#path-1"></use>
            </mask>
            <use id="Eye" fill="#4339F2" xlink:href="#path-1"></use>
        </g>
    </g>
</svg>