<?xml version="1.0" encoding="UTF-8"?>
<svg width="20px" height="14px" viewBox="0 0 20 14" version="1.1" xmlns="http://www.w3.org/2000/svg" xmlns:xlink="http://www.w3.org/1999/xlink">
    <!-- Generator: Sketch 52.6 (67491) - http://www.bohemiancoding.com/sketch -->
    <title>List</title>
    <desc>Created with Sketch.</desc>
    <g id="Pages" stroke="none" stroke-width="1" fill="none" fill-rule="evenodd" opacity="0.200000003">
        <g id="Document-management-drive--Grid" transform="translate(-1366.000000, -153.000000)" fill="#000000" fill-rule="nonzero">
            <path d="M1368.1544,153.2076 L1383.4,153.2076 C1384.50457,153.2076 1385.4,154.103031 1385.4,155.2076 C1385.4,156.31217 1384.50457,157.2076 1383.4,157.2076 L1368.1544,157.2076 C1367.04983,157.2076 1366.1544,156.31217 1366.1544,155.2076 C1366.1544,154.103031 1367.04983,153.2076 1368.1544,153.2076 Z M1368.1544,162.7924 L1383.4,162.7924 C1384.50457,162.7924 1385.4,163.68783 1385.4,164.7924 C1385.4,165.896969 1384.50457,166.7924 1383.4,166.7924 L1368.1544,166.7924 C1367.04983,166.7924 1366.1544,165.896969 1366.1544,164.7924 C1366.1544,163.68783 1367.04983,162.7924 1368.1544,162.7924 Z" id="List"></path>
        </g>
    </g>
</svg>