<?xml version="1.0" encoding="UTF-8"?>
<svg width="23px" height="22px" viewBox="0 0 23 22" version="1.1" xmlns="http://www.w3.org/2000/svg" xmlns:xlink="http://www.w3.org/1999/xlink">
    <!-- Generator: Sketch 52.6 (67491) - http://www.bohemiancoding.com/sketch -->
    <title>Pencil</title>
    <desc>Created with Sketch.</desc>
    <defs>
        <path d="M1057.75813,158.238267 L1054.1648,154.644933 L1056.76213,152.046267 L1060.35413,155.638267 L1057.75813,158.238267 Z M1048.50613,167.4996 L1044.5368,167.860933 L1044.8888,163.9196 L1052.37813,156.430267 L1055.9728,160.024933 L1048.50613,167.4996 Z M1062.27147,153.7836 L1062.27013,153.782267 L1058.61947,150.1316 C1057.63147,149.146267 1055.93413,149.0996 1054.99813,150.0396 L1043.00347,162.034267 C1042.5688,162.4676 1042.29947,163.0436 1042.24347,163.652933 L1041.73813,169.212933 C1041.70347,169.606267 1041.84347,169.9956 1042.12347,170.2756 C1042.37547,170.5276 1042.71547,170.666267 1043.06613,170.666267 C1043.10747,170.666267 1043.14747,170.664933 1043.18747,170.660933 L1048.74747,170.1556 C1049.35813,170.0996 1049.9328,169.8316 1050.36613,169.398267 L1062.36213,157.402267 C1063.3328,156.428933 1063.29147,154.804933 1062.27147,153.7836 Z" id="path-1"></path>
    </defs>
    <g id="Pages" stroke="none" stroke-width="1" fill="none" fill-rule="evenodd">
        <g id="Document-management-drive--Grid" transform="translate(-1041.000000, -149.000000)">
            <mask id="mask-2" fill="white">
                <use xlink:href="#path-1"></use>
            </mask>
            <use id="Pencil" fill="#4339F2" xlink:href="#path-1"></use>
        </g>
    </g>
</svg>