<?xml version="1.0" encoding="UTF-8"?>
<svg width="28px" height="28px" viewBox="0 0 28 28" version="1.1" xmlns="http://www.w3.org/2000/svg" xmlns:xlink="http://www.w3.org/1999/xlink">
    <!-- Generator: Sketch 52.6 (67491) - http://www.bohemiancoding.com/sketch -->
    <title>Trash</title>
    <desc>Created with Sketch.</desc>
    <defs>
        <path d="M1117.14238,169.333333 C1117.14238,170.068 1116.54505,170.666667 1115.80905,170.666667 L1102.47571,170.666667 C1101.73971,170.666667 1101.14238,170.068 1101.14238,169.333333 L1101.14238,154.666667 L1117.14238,154.666667 L1117.14238,169.333333 Z M1106.47571,149.770667 C1106.47571,149.564 1106.76105,149.333333 1107.14238,149.333333 L1111.14238,149.333333 C1111.52371,149.333333 1111.80905,149.564 1111.80905,149.770667 L1111.80905,152 L1106.47571,152 L1106.47571,149.770667 Z M1121.14238,152 L1119.80905,152 L1114.47571,152 L1114.47571,149.770667 C1114.47571,148.058667 1112.98105,146.666667 1111.14238,146.666667 L1107.14238,146.666667 C1105.30371,146.666667 1103.80905,148.058667 1103.80905,149.770667 L1103.80905,152 L1098.47571,152 L1097.14238,152 C1096.40905,152 1095.80905,152.6 1095.80905,153.333333 C1095.80905,154.066667 1096.40905,154.666667 1097.14238,154.666667 L1098.47571,154.666667 L1098.47571,169.333333 C1098.47571,171.538667 1100.27038,173.333333 1102.47571,173.333333 L1115.80905,173.333333 C1118.01438,173.333333 1119.80905,171.538667 1119.80905,169.333333 L1119.80905,154.666667 L1121.14238,154.666667 C1121.87571,154.666667 1122.47571,154.066667 1122.47571,153.333333 C1122.47571,152.6 1121.87571,152 1121.14238,152 Z" id="path-1"></path>
    </defs>
    <g id="Pages" stroke="none" stroke-width="1" fill="none" fill-rule="evenodd">
        <g id="Document-management-drive--Grid" transform="translate(-1095.000000, -146.000000)">
            <mask id="mask-2" fill="white">
                <use xlink:href="#path-1"></use>
            </mask>
            <use id="Trash" fill="#4339F2" xlink:href="#path-1"></use>
        </g>
    </g>
</svg>