<?xml version="1.0" encoding="UTF-8"?>
<svg width="26px" height="24px" viewBox="0 0 26 24" version="1.1" xmlns="http://www.w3.org/2000/svg" xmlns:xlink="http://www.w3.org/1999/xlink">
    <!-- Generator: Sketch 52.6 (67491) - http://www.bohemiancoding.com/sketch -->
    <title>Tree</title>
    <desc>Created with Sketch.</desc>
    <g id="Pages" stroke="none" stroke-width="1" fill="none" fill-rule="evenodd">
        <g id="Document-management-drive--Grid" transform="translate(-1168.000000, -148.000000)" fill="#4339F2">
            <path d="M1189.88476,169.333333 C1189.14876,169.333333 1188.55142,168.736 1188.55142,168 C1188.55142,167.264 1189.14876,166.666667 1189.88476,166.666667 C1190.62076,166.666667 1191.21809,167.264 1191.21809,168 C1191.21809,168.736 1190.62076,169.333333 1189.88476,169.333333 M1172.55142,161.333333 C1171.81542,161.333333 1171.21809,160.736 1171.21809,160 C1171.21809,159.264 1171.81542,158.666667 1172.55142,158.666667 C1173.28742,158.666667 1173.88476,159.264 1173.88476,160 C1173.88476,160.736 1173.28742,161.333333 1172.55142,161.333333 M1189.88476,150.666667 C1190.62076,150.666667 1191.21809,151.264 1191.21809,152 C1191.21809,152.736 1190.62076,153.333333 1189.88476,153.333333 C1189.14876,153.333333 1188.55142,152.736 1188.55142,152 C1188.55142,151.264 1189.14876,150.666667 1189.88476,150.666667 M1189.88476,164 C1188.79542,164 1187.80876,164.44 1187.08609,165.148 L1176.50609,160.446667 C1176.52342,160.298667 1176.55142,160.152 1176.55142,160 C1176.55142,159.848 1176.52342,159.701333 1176.50609,159.553333 L1187.08609,154.852 C1187.80876,155.56 1188.79542,156 1189.88476,156 C1192.09009,156 1193.88476,154.205333 1193.88476,152 C1193.88476,149.794667 1192.09009,148 1189.88476,148 C1187.67942,148 1185.88476,149.794667 1185.88476,152 C1185.88476,152.152 1185.91276,152.298667 1185.93009,152.446667 L1175.35009,157.148 C1174.62742,156.44 1173.64076,156 1172.55142,156 C1170.34609,156 1168.55142,157.794667 1168.55142,160 C1168.55142,162.205333 1170.34609,164 1172.55142,164 C1173.64076,164 1174.62742,163.56 1175.35009,162.852 L1185.93009,167.553333 C1185.91276,167.701333 1185.88476,167.848 1185.88476,168 C1185.88476,170.205333 1187.67942,172 1189.88476,172 C1192.09009,172 1193.88476,170.205333 1193.88476,168 C1193.88476,165.794667 1192.09009,164 1189.88476,164" id="Tree"></path>
        </g>
    </g>
</svg>