<?xml version="1.0" encoding="UTF-8"?>
<svg width="20px" height="21px" viewBox="0 0 20 21" version="1.1" xmlns="http://www.w3.org/2000/svg" xmlns:xlink="http://www.w3.org/1999/xlink">
    <!-- Generator: Sketch 52.6 (67491) - http://www.bohemiancoding.com/sketch -->
    <title>Power</title>
    <desc>Created with Sketch.</desc>
    <defs>
        <path d="M10,12 C9.448,12 9,11.553 9,11 L9,1 C9,0.447 9.448,0 10,0 C10.552,0 11,0.447 11,1 L11,11 C11,11.553 10.552,12 10,12 Z M14.5859,2.1113 C17.9249,3.8383 19.9999,7.2433 19.9999,11.0003 C19.9999,16.5133 15.5139,21.0003 9.9999,21.0003 C4.4859,21.0003 -0.0001,16.5133 -0.0001,11.0003 C-0.0001,7.2433 2.0749,3.8383 5.4149,2.1113 C5.9039,1.8583 6.5079,2.0493 6.7619,2.5413 C7.0159,3.0313 6.8229,3.6343 6.3329,3.8883 C3.6599,5.2693 1.9999,7.9943 1.9999,11.0003 C1.9999,15.4113 5.5889,19.0003 9.9999,19.0003 C14.4109,19.0003 17.9999,15.4113 17.9999,11.0003 C17.9999,7.9943 16.3399,5.2693 13.6679,3.8883 C13.1769,3.6343 12.9849,3.0313 13.2389,2.5413 C13.4919,2.0503 14.0959,1.8593 14.5859,2.1113 Z" id="path-1"></path>
    </defs>
    <g id="Symbols" stroke="none" stroke-width="1" fill="none" fill-rule="evenodd">
        <g id="Menu" transform="translate(-37.000000, -842.000000)">
            <g id="Power" transform="translate(37.000000, 842.000000)">
                <mask id="mask-2" fill="white">
                    <use xlink:href="#path-1"></use>
                </mask>
                <use id="Color" fill="#000000" opacity="0.200000003" xlink:href="#path-1"></use>
            </g>
        </g>
    </g>
</svg>