<?xml version="1.0" encoding="UTF-8"?>
<svg width="21px" height="20px" viewBox="0 0 21 20" version="1.1" xmlns="http://www.w3.org/2000/svg" xmlns:xlink="http://www.w3.org/1999/xlink">
    <!-- Generator: Sketch 52.6 (67491) - http://www.bohemiancoding.com/sketch -->
    <title>Plus</title>
    <desc>Created with Sketch.</desc>
    <g id="Pages" stroke="none" stroke-width="1" fill="none" fill-rule="evenodd">
        <g id="Document-management-drive-List" transform="translate(-1290.000000, -36.000000)" fill="#FFFFFF">
            <path d="M1309.15,44.75 L1301.65,44.75 L1301.65,37.25 C1301.65,36.55875 1301.09,36 1300.4,36 C1299.71,36 1299.15,36.55875 1299.15,37.25 L1299.15,44.75 L1291.65,44.75 C1290.96,44.75 1290.4,45.30875 1290.4,46 C1290.4,46.69125 1290.96,47.25 1291.65,47.25 L1299.15,47.25 L1299.15,54.75 C1299.15,55.44125 1299.71,56 1300.4,56 C1301.09,56 1301.65,55.44125 1301.65,54.75 L1301.65,47.25 L1309.15,47.25 C1309.84,47.25 1310.4,46.69125 1310.4,46 C1310.4,45.30875 1309.84,44.75 1309.15,44.75" id="Plus"></path>
        </g>
    </g>
</svg>